<svg xmlns="http://www.w3.org/2000/svg" width="760" height="380" font-family="Segoe UI, Arial, sans-serif">
<rect width="760" height="380" fill="white"/>
<text x="60" y="30" font-size="17" font-weight="bold">Exp.1b  delta accuracy from adding ENTROPY MINIMISATION to the inner loop</text>
<text x="145.0" y="50" font-size="13" text-anchor="middle">a=0.05</text>
<text x="255.0" y="50" font-size="13" text-anchor="middle">a=0.1</text>
<text x="365.0" y="50" font-size="13" text-anchor="middle">a=0.2</text>
<text x="475.0" y="50" font-size="13" text-anchor="middle">a=0.4</text>
<text x="585.0" y="50" font-size="13" text-anchor="middle">a=0.8</text>
<text x="78" y="105.0" font-size="13" text-anchor="end">m=1</text>
<rect x="90" y="60" width="106" height="76" fill="rgb(253,237,230)" stroke="#bbb"/>
<text x="143.0" y="105.0" font-size="13" text-anchor="middle" fill="#111">+0.8</text>
<rect x="200" y="60" width="106" height="76" fill="rgb(254,239,233)" stroke="#bbb"/>
<text x="253.0" y="105.0" font-size="13" text-anchor="middle" fill="#111">+0.2</text>
<rect x="310" y="60" width="106" height="76" fill="rgb(254,234,229)" stroke="#bbb"/>
<text x="363.0" y="105.0" font-size="13" text-anchor="middle" fill="#111">-0.1</text>
<rect x="420" y="60" width="106" height="76" fill="rgb(254,233,228)" stroke="#bbb"/>
<text x="473.0" y="105.0" font-size="13" text-anchor="middle" fill="#111">-0.2</text>
<rect x="530" y="60" width="106" height="76" fill="rgb(254,233,228)" stroke="#bbb"/>
<text x="583.0" y="105.0" font-size="13" text-anchor="middle" fill="#111">-0.3</text>
<text x="78" y="185.0" font-size="13" text-anchor="end">m=3</text>
<rect x="90" y="140" width="106" height="76" fill="rgb(254,238,232)" stroke="#bbb"/>
<text x="143.0" y="185.0" font-size="13" text-anchor="middle" fill="#111">+0.4</text>
<rect x="200" y="140" width="106" height="76" fill="rgb(254,234,229)" stroke="#bbb"/>
<text x="253.0" y="185.0" font-size="13" text-anchor="middle" fill="#111">-0.1</text>
<rect x="310" y="140" width="106" height="76" fill="rgb(239,150,145)" stroke="#bbb"/>
<text x="363.0" y="185.0" font-size="13" text-anchor="middle" fill="#111">-12.4</text>
<rect x="420" y="140" width="106" height="76" fill="rgb(238,147,142)" stroke="#bbb"/>
<text x="473.0" y="185.0" font-size="13" text-anchor="middle" fill="#111">-12.8</text>
<rect x="530" y="140" width="106" height="76" fill="rgb(245,185,180)" stroke="#bbb"/>
<text x="583.0" y="185.0" font-size="13" text-anchor="middle" fill="#111">-7.3</text>
<text x="78" y="265.0" font-size="13" text-anchor="end">m=8</text>
<rect x="90" y="220" width="106" height="76" fill="rgb(254,230,225)" stroke="#bbb"/>
<text x="143.0" y="265.0" font-size="13" text-anchor="middle" fill="#111">-0.7</text>
<rect x="200" y="220" width="106" height="76" fill="rgb(249,205,200)" stroke="#bbb"/>
<text x="253.0" y="265.0" font-size="13" text-anchor="middle" fill="#111">-4.4</text>
<rect x="310" y="220" width="106" height="76" fill="rgb(233,120,115)" stroke="#bbb"/>
<text x="363.0" y="265.0" font-size="13" text-anchor="middle" fill="#111">-16.7</text>
<rect x="420" y="220" width="106" height="76" fill="rgb(225,75,70)" stroke="#bbb"/>
<text x="473.0" y="265.0" font-size="13" text-anchor="middle" fill="#111">-23.3</text>
<rect x="530" y="220" width="106" height="76" fill="rgb(232,113,108)" stroke="#bbb"/>
<text x="583.0" y="265.0" font-size="13" text-anchor="middle" fill="#111">-17.7</text>
</svg>